# xmcd CD database file
#
# Track frame offsets:
#	225
#	20965
#	33429
#	56367
#	81548
#	102312
#	123886
#	141621
#	166496
#	187023
#
# Disc length: 2927 seconds
#
# Revision: 1
# Processed by: cddbd v1.5.1PL0 Copyright (c) Steve Scherf et al.
# Submitted via: CDex 1.51
#
DISCID=930b6c0a
DTITLE=The Bastard Brothers - Come On
DYEAR=1997
DGENRE=Blues
TTITLE0=I wanna go home
TTITLE1=Dancing stairs
TTITLE2=Here I am
TTITLE3=Come on
TTITLE4=Time to change
TTITLE5=What and Where
TTITLE6=We can be friends
TTITLE7=The truth
TTITLE8=The time has come
TTITLE9=Bread and water don't make wine
EXTD=YEAR: 1997
EXTT0=
EXTT1=
EXTT2=
EXTT3=
EXTT4=
EXTT5=
EXTT6=
EXTT7=
EXTT8=
EXTT9=
PLAYORDER=
